<?xml version="1.0" encoding="UTF-8"?>
<svg xmlns="http://www.w3.org/2000/svg" xmlns:xlink="http://www.w3.org/1999/xlink" width="1292" height="623">
  <defs><clipPath id="b"><use xlink:href="#a"/></clipPath></defs>
  <g clip-path="url(#b)">
    <path fill="#97d5ff" d="M475.606 3.069h171.83v543.524h-171.83z"/>
    <path fill="#c4e6fd" d="M303.776 3.069h171.83v543.524h-171.83z"/>
    <path fill="#def2ff" d="M131.947 3.069h171.83v543.524h-171.83z"/>
    <path fill="#f4f9fc" d="M-39.883 3.069h171.83v543.524h-171.83z"/>
    <path fill="#ffefef" d="M1162.924 3.069h171.83v543.524h-171.83z"/>
    <path fill="#ffdede" d="M991.094 3.069h171.83v543.524h-171.83z"/>
    <path fill="#fdc4c4" d="M819.265 3.069h171.83v543.524h-171.83z"/>
    <path fill="#ffa8a8" d="M647.435 3.069h171.83v543.524h-171.83z"/>
  </g>
  <path id="a" fill="none" stroke="#000" stroke-width="4" d="M1294.121 545.594c-43.732-.375-87.309-1.944-131.197-5.623-71.662-6.008-128.428-29.277-171.83-67.413-36.422-32.003-65.65-70.773-93.142-114.536-27.297-43.453-52.905-92.261-78.687-143.013-24.471-48.171-51.465-99.486-79.595-140.83-28.13-41.342-57.936-71.11-92.234-71.11-34.3 0-64.104 29.768-92.235 71.11-28.13 41.344-55.124 92.659-79.595 140.83-25.782 50.752-51.39 99.56-78.687 143.013-27.492 43.763-56.72 82.533-93.143 114.536-43.401 38.136-100.166 61.405-171.829 67.413-43.889 3.679-87.465 5.248-131.197 5.623"/>
  <path fill="none" stroke="#000" stroke-width="3" d="M1162.924 539.97v6.624m-171.83-74.249v74.249M819.266 215.009v331.585m-687.318-6.623v6.623m171.83-74.249v74.249m171.829-331.585v331.585m171.83 0V3.069"/>
  <path fill="none" stroke="#000" stroke-width="3" d="M.75 546.594h1293.37"/>
  <path fill="#ffefef" stroke="#000" stroke-dasharray="3,3" stroke-width="3" d="M131.947 539.97V480M1162.924 539.97V480"/>
  <g font-family="Times" font-size="30" text-anchor="middle">
    <text x="647.685" y="584">μ</text>
    <text x="819.515" y="584">μ+σ</text>
    <text x="991.345" y="584">μ+2·σ</text>
    <text x="1163.174" y="584">μ+3·σ</text>
    <text x="475.856" y="584">μ−σ</text>
    <text x="304.026" y="584">μ−2·σ</text>
    <text x="132.197" y="584">μ−3·σ</text>
  </g>
  <g font-family="Times" font-size="24" text-anchor="middle">
    <text x="318" y="99">P(μ−1·σ ≤ X ≤ μ+1·σ) ≈ 68,27 %</text>
    <text x="318" y="128">P(μ−2·σ ≤ X ≤ μ+2·σ) ≈ 95,45 %</text>
    <text x="318" y="157">P(μ−3·σ ≤ X ≤ μ+3·σ) ≈ 99,73 %</text>
    <text x="647.685" y="616">P(X ≤ μ) = 50 % = P(X ≥ μ)</text>
    <text x="938" y="99">P(X ≤ μ+1·σ) ≈ 84,13 %</text>
    <text x="938" y="128">P(X ≤ μ+2·σ) ≈ 97,72 %</text>
    <text x="938" y="157">P(X ≤ μ+3·σ) ≈ 99,87 %</text>
    <text x="74" y="536">0,13 %</text>
    <text x="264" y="536">2,14 %</text>
    <text x="390" y="472">13,59 %</text>
    <text x="562" y="332">34,13%</text>
    <text x="733" y="332">34,13%</text>
    <text x="905" y="472">13,59 %</text>
    <text x="1031" y="536">2,14 %</text>
    <text x="1228" y="536">0,13 %</text>
  </g>
</svg>
