<?xml version="1.0" standalone="no"?>
<!DOCTYPE svg PUBLIC "-//W3C//DTD SVG 20010904//EN"
 "http://www.w3.org/TR/2001/REC-SVG-20010904/DTD/svg10.dtd">
<svg version="1.0" xmlns="http://www.w3.org/2000/svg"
 width="612.000000pt" height="272.000000pt" viewBox="0 0 612.000000 272.000000"
 preserveAspectRatio="xMidYMid meet">

<g transform="translate(0.000000,272.000000) scale(0.100000,-0.100000)"
fill="#000000" stroke="none">
<path d="M1794 1608 c-27 -52 -54 -206 -54 -310 l0 -97 -60 -7 c-51 -6 -60
-10 -60 -27 0 -18 5 -19 50 -14 36 4 50 3 50 -6 -1 -22 -55 -91 -89 -114 l-34
-23 -798 0 c-795 0 -799 0 -799 -20 0 -20 3 -20 808 -18 l807 3 33 23 c18 13
48 47 67 74 l34 51 11 -44 c17 -62 67 -109 117 -109 46 0 113 37 177 98 25 23
46 42 48 42 2 0 2 -31 0 -70 -3 -56 -1 -70 10 -70 8 0 21 15 30 33 23 49 67
97 89 97 10 0 25 -12 33 -27 21 -39 64 -83 82 -83 26 0 58 21 96 64 l37 41 1
-41 c1 -88 59 -99 106 -19 14 25 29 45 33 45 4 0 18 -11 30 -24 13 -14 40 -28
62 -31 59 -10 120 24 215 121 l81 83 -8 -57 c-23 -159 -23 -152 -5 -152 8 0
26 17 39 38 34 53 82 102 101 102 9 0 27 -22 41 -50 27 -53 73 -90 113 -90 33
0 88 25 133 61 l39 31 0 -71 c0 -39 4 -71 10 -71 5 0 21 20 36 45 l26 45 22
-32 c34 -50 58 -58 191 -58 150 0 185 10 241 65 l44 44 0 -38 c0 -42 23 -71
57 -71 11 0 36 16 56 37 20 20 37 34 37 30 0 -3 -18 -39 -40 -80 -74 -137
-101 -264 -66 -312 42 -57 86 47 130 307 5 24 19 49 39 68 38 35 44 36 52 10
7 -22 53 -50 84 -50 11 0 33 11 49 25 17 14 36 25 44 25 8 0 36 11 62 25 26
14 48 25 49 25 1 0 2 -16 3 -37 1 -46 35 -77 73 -68 35 9 49 22 73 69 l20 40
20 -37 c10 -21 30 -42 44 -47 15 -6 281 -10 665 -10 632 0 639 0 639 20 0 20
-7 20 -639 20 -744 0 -679 -10 -690 108 -9 100 -26 109 -51 27 -19 -62 -61
-134 -81 -140 -34 -11 -40 4 -37 82 2 45 -1 77 -7 79 -5 2 -22 -14 -37 -36
-15 -22 -45 -48 -68 -60 l-40 -20 0 38 c0 21 -5 43 -12 50 -15 15 -45 16 -54
1 -11 -18 -7 -69 7 -85 9 -11 9 -17 -1 -29 -18 -22 -57 -19 -70 6 -16 28 -6
62 30 102 16 19 27 37 23 41 -16 16 -44 2 -74 -36 -18 -24 -47 -56 -64 -71
l-30 -28 -3 48 c-3 68 -10 93 -26 93 -8 0 -16 -15 -19 -36 -14 -86 -83 -171
-108 -134 -9 14 -8 31 7 123 10 56 -18 49 -59 -16 -19 -28 -51 -68 -71 -87
l-37 -35 -136 -3 c-158 -4 -176 -1 -191 33 -15 32 -5 54 39 88 21 17 30 30 26
41 -11 28 -46 17 -93 -29 -24 -25 -47 -45 -49 -45 -13 0 -1 40 39 138 58 142
86 235 86 287 0 58 -8 75 -34 75 -28 0 -58 -33 -79 -88 -20 -51 -47 -208 -47
-274 0 -39 -6 -54 -32 -83 -33 -39 -122 -95 -149 -95 -27 0 -68 39 -94 90 -37
72 -61 74 -129 11 -36 -34 -38 -34 -32 -11 14 53 19 157 7 164 -6 4 -55 -39
-118 -104 -110 -114 -169 -156 -204 -145 -30 10 -59 44 -85 101 -25 56 -42 68
-77 55 -24 -10 -88 -75 -132 -134 -51 -70 -87 -72 -123 -9 -11 21 -30 46 -41
56 -18 16 -24 17 -51 6 -17 -7 -37 -21 -44 -32 -8 -11 -17 -15 -20 -10 -7 12
4 49 47 152 75 183 99 302 66 336 -23 22 -53 11 -78 -30 -27 -44 -58 -180 -67
-291 -6 -86 -8 -92 -43 -129 -67 -72 -149 -126 -191 -126 -44 0 -63 18 -85 79
-25 73 -23 77 47 85 69 7 73 9 65 30 -5 13 -18 15 -66 10 l-60 -7 29 89 c32
101 60 228 60 274 0 71 -47 95 -76 38z m27 -132 c-6 -33 -20 -88 -31 -121
l-20 -60 5 70 c7 88 48 244 53 201 2 -16 -1 -56 -7 -90z m1744 -82 c-44 -134
-61 -156 -51 -63 11 98 37 190 60 213 l21 21 3 -29 c2 -16 -13 -80 -33 -142z
m-1325 124 c0 -38 -62 -224 -80 -242 -14 -13 -7 61 16 164 22 98 64 149 64 78z
m340 -374 c0 -23 -41 -114 -51 -114 -18 0 -13 63 7 103 16 29 44 37 44 11z
m1560 -344 c-24 -96 -49 -147 -50 -99 0 46 60 225 68 200 2 -6 -6 -52 -18
-101z"/>
</g>
</svg>
