<svg xmlns="http://www.w3.org/2000/svg" xmlns:xlink="http://www.w3.org/1999/xlink" version="1.1" width="425pt" height="283pt" viewBox="0 0 425 283">
<defs>
<clipPath id="clip_0">
<path transform="matrix(.1,0,0,-.1,0,283)" d="M39 27V2810H4213V27Z"/>
</clipPath>
<clipPath id="clip_1">
<path transform="matrix(.1,0,0,-.1,0,283)" d="M571 316V2473H3742V316Z"/>
</clipPath>
<clipPath id="clip_2">
<path transform="matrix(.1,0,0,-.1,0,283)" d="M39 27V2810H4213V27Z"/>
</clipPath>
</defs>
<g clip-path="url(#clip_0)">
<path transform="matrix(.1,0,0,-.1,0,283)" stroke-width="5.00001" stroke-linecap="butt" stroke-linejoin="round" fill="none" stroke="#ffffff" d="M571.2 318H3740.4V2472H571.2Z"/>
<path transform="matrix(.1,0,0,-.1,0,283)" stroke-width="3.33334" stroke-linecap="butt" stroke-dasharray="5,40" stroke-linejoin="round" fill="none" stroke="#000000" d="M571.2 318V2472"/>
<path transform="matrix(.1,0,0,-.1,0,283)" stroke-width="3.33334" stroke-linecap="butt" stroke-dasharray="5,40" stroke-linejoin="round" fill="none" stroke="#000000" d="M571.2 2472V2472"/>
<path transform="matrix(.1,0,0,-.1,0,283)" stroke-width="3.33334" stroke-linecap="butt" stroke-dasharray="5,40" stroke-linejoin="round" fill="none" stroke="#000000" d="M888 318V2472"/>
<path transform="matrix(.1,0,0,-.1,0,283)" stroke-width="3.33334" stroke-linecap="butt" stroke-dasharray="5,40" stroke-linejoin="round" fill="none" stroke="#000000" d="M888 2472V2472"/>
<path transform="matrix(.1,0,0,-.1,0,283)" stroke-width="3.33334" stroke-linecap="butt" stroke-dasharray="5,40" stroke-linejoin="round" fill="none" stroke="#000000" d="M1204.8 318V2472"/>
<path transform="matrix(.1,0,0,-.1,0,283)" stroke-width="3.33334" stroke-linecap="butt" stroke-dasharray="5,40" stroke-linejoin="round" fill="none" stroke="#000000" d="M1204.8 2472V2472"/>
<path transform="matrix(.1,0,0,-.1,0,283)" stroke-width="3.33334" stroke-linecap="butt" stroke-dasharray="5,40" stroke-linejoin="round" fill="none" stroke="#000000" d="M1521.6 318V2472"/>
<path transform="matrix(.1,0,0,-.1,0,283)" stroke-width="3.33334" stroke-linecap="butt" stroke-dasharray="5,40" stroke-linejoin="round" fill="none" stroke="#000000" d="M1521.6 2472V2472"/>
<path transform="matrix(.1,0,0,-.1,0,283)" stroke-width="3.33334" stroke-linecap="butt" stroke-dasharray="5,40" stroke-linejoin="round" fill="none" stroke="#000000" d="M1838.4 318V2472"/>
<path transform="matrix(.1,0,0,-.1,0,283)" stroke-width="3.33334" stroke-linecap="butt" stroke-dasharray="5,40" stroke-linejoin="round" fill="none" stroke="#000000" d="M1838.4 2472V2472"/>
<path transform="matrix(.1,0,0,-.1,0,283)" stroke-width="3.33334" stroke-linecap="butt" stroke-dasharray="5,40" stroke-linejoin="round" fill="none" stroke="#000000" d="M2155.2 318V2472"/>
<path transform="matrix(.1,0,0,-.1,0,283)" stroke-width="3.33334" stroke-linecap="butt" stroke-dasharray="5,40" stroke-linejoin="round" fill="none" stroke="#000000" d="M2155.2 2472V2472"/>
<path transform="matrix(.1,0,0,-.1,0,283)" stroke-width="3.33334" stroke-linecap="butt" stroke-dasharray="5,40" stroke-linejoin="round" fill="none" stroke="#000000" d="M2472 318V2472"/>
<path transform="matrix(.1,0,0,-.1,0,283)" stroke-width="3.33334" stroke-linecap="butt" stroke-dasharray="5,40" stroke-linejoin="round" fill="none" stroke="#000000" d="M2472 2472V2472"/>
<path transform="matrix(.1,0,0,-.1,0,283)" stroke-width="3.33334" stroke-linecap="butt" stroke-dasharray="5,40" stroke-linejoin="round" fill="none" stroke="#000000" d="M2788.8 318V2472"/>
<path transform="matrix(.1,0,0,-.1,0,283)" stroke-width="3.33334" stroke-linecap="butt" stroke-dasharray="5,40" stroke-linejoin="round" fill="none" stroke="#000000" d="M2788.8 2472V2472"/>
<path transform="matrix(.1,0,0,-.1,0,283)" stroke-width="3.33334" stroke-linecap="butt" stroke-dasharray="5,40" stroke-linejoin="round" fill="none" stroke="#000000" d="M3105.6 318V2472"/>
<path transform="matrix(.1,0,0,-.1,0,283)" stroke-width="3.33334" stroke-linecap="butt" stroke-dasharray="5,40" stroke-linejoin="round" fill="none" stroke="#000000" d="M3105.6 2472V2472"/>
<path transform="matrix(.1,0,0,-.1,0,283)" stroke-width="3.33334" stroke-linecap="butt" stroke-dasharray="5,40" stroke-linejoin="round" fill="none" stroke="#000000" d="M3422.4 318V2472"/>
<path transform="matrix(.1,0,0,-.1,0,283)" stroke-width="3.33334" stroke-linecap="butt" stroke-dasharray="5,40" stroke-linejoin="round" fill="none" stroke="#000000" d="M3422.4 2472V2472"/>
<path transform="matrix(.1,0,0,-.1,0,283)" stroke-width="3.33334" stroke-linecap="butt" stroke-dasharray="5,40" stroke-linejoin="round" fill="none" stroke="#000000" d="M3740.4 318V2472"/>
<path transform="matrix(.1,0,0,-.1,0,283)" stroke-width="3.33334" stroke-linecap="butt" stroke-dasharray="5,40" stroke-linejoin="round" fill="none" stroke="#000000" d="M3740.4 2472V2472"/>
<path transform="matrix(.1,0,0,-.1,0,283)" stroke-width="3.33334" stroke-linecap="butt" stroke-dasharray="5,40" stroke-linejoin="round" fill="none" stroke="#000000" d="M571.2 318H3740.4"/>
<path transform="matrix(.1,0,0,-.1,0,283)" stroke-width="3.33334" stroke-linecap="butt" stroke-dasharray="5,40" stroke-linejoin="round" fill="none" stroke="#000000" d="M3740.4 318V318"/>
<path transform="matrix(.1,0,0,-.1,0,283)" stroke-width="3.33334" stroke-linecap="butt" stroke-dasharray="5,40" stroke-linejoin="round" fill="none" stroke="#000000" d="M571.2 534H3740.4"/>
<path transform="matrix(.1,0,0,-.1,0,283)" stroke-width="3.33334" stroke-linecap="butt" stroke-dasharray="5,40" stroke-linejoin="round" fill="none" stroke="#000000" d="M3740.4 534V534"/>
<path transform="matrix(.1,0,0,-.1,0,283)" stroke-width="3.33334" stroke-linecap="butt" stroke-dasharray="5,40" stroke-linejoin="round" fill="none" stroke="#000000" d="M571.2 748.8H3740.4"/>
<path transform="matrix(.1,0,0,-.1,0,283)" stroke-width="3.33334" stroke-linecap="butt" stroke-dasharray="5,40" stroke-linejoin="round" fill="none" stroke="#000000" d="M3740.4 748.8V748.8"/>
<path transform="matrix(.1,0,0,-.1,0,283)" stroke-width="3.33334" stroke-linecap="butt" stroke-dasharray="5,40" stroke-linejoin="round" fill="none" stroke="#000000" d="M571.2 964.801H3740.4"/>
<path transform="matrix(.1,0,0,-.1,0,283)" stroke-width="3.33334" stroke-linecap="butt" stroke-dasharray="5,40" stroke-linejoin="round" fill="none" stroke="#000000" d="M3740.4 964.801V964.801"/>
<path transform="matrix(.1,0,0,-.1,0,283)" stroke-width="3.33334" stroke-linecap="butt" stroke-dasharray="5,40" stroke-linejoin="round" fill="none" stroke="#000000" d="M571.2 1179.6H3740.4"/>
<path transform="matrix(.1,0,0,-.1,0,283)" stroke-width="3.33334" stroke-linecap="butt" stroke-dasharray="5,40" stroke-linejoin="round" fill="none" stroke="#000000" d="M3740.4 1179.6V1179.6"/>
<path transform="matrix(.1,0,0,-.1,0,283)" stroke-width="3.33334" stroke-linecap="butt" stroke-dasharray="5,40" stroke-linejoin="round" fill="none" stroke="#000000" d="M571.2 1395.6H3740.4"/>
<path transform="matrix(.1,0,0,-.1,0,283)" stroke-width="3.33334" stroke-linecap="butt" stroke-dasharray="5,40" stroke-linejoin="round" fill="none" stroke="#000000" d="M3740.4 1395.6V1395.6"/>
<path transform="matrix(.1,0,0,-.1,0,283)" stroke-width="3.33334" stroke-linecap="butt" stroke-dasharray="5,40" stroke-linejoin="round" fill="none" stroke="#000000" d="M571.2 1611.6H3740.4"/>
<path transform="matrix(.1,0,0,-.1,0,283)" stroke-width="3.33334" stroke-linecap="butt" stroke-dasharray="5,40" stroke-linejoin="round" fill="none" stroke="#000000" d="M3740.4 1611.6V1611.6"/>
<path transform="matrix(.1,0,0,-.1,0,283)" stroke-width="3.33334" stroke-linecap="butt" stroke-dasharray="5,40" stroke-linejoin="round" fill="none" stroke="#000000" d="M571.2 1826.4H3740.4"/>
<path transform="matrix(.1,0,0,-.1,0,283)" stroke-width="3.33334" stroke-linecap="butt" stroke-dasharray="5,40" stroke-linejoin="round" fill="none" stroke="#000000" d="M3740.4 1826.4V1826.4"/>
<path transform="matrix(.1,0,0,-.1,0,283)" stroke-width="3.33334" stroke-linecap="butt" stroke-dasharray="5,40" stroke-linejoin="round" fill="none" stroke="#000000" d="M571.2 2041.2H3740.4"/>
<path transform="matrix(.1,0,0,-.1,0,283)" stroke-width="3.33334" stroke-linecap="butt" stroke-dasharray="5,40" stroke-linejoin="round" fill="none" stroke="#000000" d="M3740.4 2041.2V2041.2"/>
<path transform="matrix(.1,0,0,-.1,0,283)" stroke-width="3.33334" stroke-linecap="butt" stroke-dasharray="5,40" stroke-linejoin="round" fill="none" stroke="#000000" d="M571.2 2257.2H3740.4"/>
<path transform="matrix(.1,0,0,-.1,0,283)" stroke-width="3.33334" stroke-linecap="butt" stroke-dasharray="5,40" stroke-linejoin="round" fill="none" stroke="#000000" d="M3740.4 2257.2V2257.2"/>
<path transform="matrix(.1,0,0,-.1,0,283)" stroke-width="3.33334" stroke-linecap="butt" stroke-dasharray="5,40" stroke-linejoin="round" fill="none" stroke="#000000" d="M571.2 2472H3740.4"/>
<path transform="matrix(.1,0,0,-.1,0,283)" stroke-width="3.33334" stroke-linecap="butt" stroke-dasharray="5,40" stroke-linejoin="round" fill="none" stroke="#000000" d="M3740.4 2472V2472"/>
<path transform="matrix(.1,0,0,-.1,0,283)" stroke-width="5.00001" stroke-linecap="butt" stroke-linejoin="round" fill="none" stroke="#000000" d="M571.2 2472H3740.4"/>
<path transform="matrix(.1,0,0,-.1,0,283)" stroke-width="5.00001" stroke-linecap="butt" stroke-linejoin="round" fill="none" stroke="#000000" d="M571.2 318H3740.4"/>
<path transform="matrix(.1,0,0,-.1,0,283)" stroke-width="5.00001" stroke-linecap="butt" stroke-linejoin="round" fill="none" stroke="#000000" d="M3740.4 318V2472"/>
<path transform="matrix(.1,0,0,-.1,0,283)" stroke-width="5.00001" stroke-linecap="butt" stroke-linejoin="round" fill="none" stroke="#000000" d="M571.2 318V2472"/>
<path transform="matrix(.1,0,0,-.1,0,283)" stroke-width="5.00001" stroke-linecap="butt" stroke-linejoin="round" fill="none" stroke="#000000" d="M571.2 318H3740.4"/>
<path transform="matrix(.1,0,0,-.1,0,283)" stroke-width="5.00001" stroke-linecap="butt" stroke-linejoin="round" fill="none" stroke="#000000" d="M571.2 318V2472"/>
<path transform="matrix(.1,0,0,-.1,0,283)" stroke-width="5.00001" stroke-linecap="butt" stroke-linejoin="round" fill="none" stroke="#000000" d="M571.2 318V350.4"/>
<path transform="matrix(.1,0,0,-.1,0,283)" stroke-width="5.00001" stroke-linecap="butt" stroke-linejoin="round" fill="none" stroke="#000000" d="M571.2 2472V2440.8"/>
<text xml:space="preserve" transform="matrix(1 0 -0 1 0 283)" font-size="8.00001" font-family="Times"><tspan y="-21.84" x="55.2">0</tspan></text>
<path transform="matrix(.1,0,0,-.1,0,283)" stroke-width="5.00001" stroke-linecap="butt" stroke-linejoin="round" fill="none" stroke="#000000" d="M888 318V350.4"/>
<path transform="matrix(.1,0,0,-.1,0,283)" stroke-width="5.00001" stroke-linecap="butt" stroke-linejoin="round" fill="none" stroke="#000000" d="M888 2472V2440.8"/>
<text xml:space="preserve" transform="matrix(1 0 -0 1 0 283)" font-size="8.00001" font-family="Times"><tspan y="-21.84" x="83.88 87.880008 89.880008">0.2</tspan></text>
<path transform="matrix(.1,0,0,-.1,0,283)" stroke-width="5.00001" stroke-linecap="butt" stroke-linejoin="round" fill="none" stroke="#000000" d="M1204.8 318V350.4"/>
<path transform="matrix(.1,0,0,-.1,0,283)" stroke-width="5.00001" stroke-linecap="butt" stroke-linejoin="round" fill="none" stroke="#000000" d="M1204.8 2472V2440.8"/>
<text xml:space="preserve" transform="matrix(1 0 -0 1 0 283)" font-size="8.00001" font-family="Times"><tspan y="-21.84" x="115.56 119.560009 121.560009">0.4</tspan></text>
<path transform="matrix(.1,0,0,-.1,0,283)" stroke-width="5.00001" stroke-linecap="butt" stroke-linejoin="round" fill="none" stroke="#000000" d="M1521.6 318V350.4"/>
<path transform="matrix(.1,0,0,-.1,0,283)" stroke-width="5.00001" stroke-linecap="butt" stroke-linejoin="round" fill="none" stroke="#000000" d="M1521.6 2472V2440.8"/>
<text xml:space="preserve" transform="matrix(1 0 -0 1 0 283)" font-size="8.00001" font-family="Times"><tspan y="-21.84" x="147.24 151.24 153.24">0.6</tspan></text>
<path transform="matrix(.1,0,0,-.1,0,283)" stroke-width="5.00001" stroke-linecap="butt" stroke-linejoin="round" fill="none" stroke="#000000" d="M1838.4 318V350.4"/>
<path transform="matrix(.1,0,0,-.1,0,283)" stroke-width="5.00001" stroke-linecap="butt" stroke-linejoin="round" fill="none" stroke="#000000" d="M1838.4 2472V2440.8"/>
<text xml:space="preserve" transform="matrix(1 0 -0 1 0 283)" font-size="8.00001" font-family="Times"><tspan y="-21.84" x="178.92 182.92 184.92">0.8</tspan></text>
<path transform="matrix(.1,0,0,-.1,0,283)" stroke-width="5.00001" stroke-linecap="butt" stroke-linejoin="round" fill="none" stroke="#000000" d="M2155.2 318V350.4"/>
<path transform="matrix(.1,0,0,-.1,0,283)" stroke-width="5.00001" stroke-linecap="butt" stroke-linejoin="round" fill="none" stroke="#000000" d="M2155.2 2472V2440.8"/>
<text xml:space="preserve" transform="matrix(1 0 -0 1 0 283)" font-size="8.00001" font-family="Times"><tspan y="-21.84" x="213.6">1</tspan></text>
<path transform="matrix(.1,0,0,-.1,0,283)" stroke-width="5.00001" stroke-linecap="butt" stroke-linejoin="round" fill="none" stroke="#000000" d="M2472 318V350.4"/>
<path transform="matrix(.1,0,0,-.1,0,283)" stroke-width="5.00001" stroke-linecap="butt" stroke-linejoin="round" fill="none" stroke="#000000" d="M2472 2472V2440.8"/>
<text xml:space="preserve" transform="matrix(1 0 -0 1 0 283)" font-size="8.00001" font-family="Times"><tspan y="-21.84" x="242.28 246.28 248.28">1.2</tspan></text>
<path transform="matrix(.1,0,0,-.1,0,283)" stroke-width="5.00001" stroke-linecap="butt" stroke-linejoin="round" fill="none" stroke="#000000" d="M2788.8 318V350.4"/>
<path transform="matrix(.1,0,0,-.1,0,283)" stroke-width="5.00001" stroke-linecap="butt" stroke-linejoin="round" fill="none" stroke="#000000" d="M2788.8 2472V2440.8"/>
<text xml:space="preserve" transform="matrix(1 0 -0 1 0 283)" font-size="8.00001" font-family="Times"><tspan y="-21.84" x="273.96 277.96 279.96">1.4</tspan></text>
<path transform="matrix(.1,0,0,-.1,0,283)" stroke-width="5.00001" stroke-linecap="butt" stroke-linejoin="round" fill="none" stroke="#000000" d="M3105.6 318V350.4"/>
<path transform="matrix(.1,0,0,-.1,0,283)" stroke-width="5.00001" stroke-linecap="butt" stroke-linejoin="round" fill="none" stroke="#000000" d="M3105.6 2472V2440.8"/>
<text xml:space="preserve" transform="matrix(1 0 -0 1 0 283)" font-size="8.00001" font-family="Times"><tspan y="-21.84" x="305.64 309.64 311.64">1.6</tspan></text>
<path transform="matrix(.1,0,0,-.1,0,283)" stroke-width="5.00001" stroke-linecap="butt" stroke-linejoin="round" fill="none" stroke="#000000" d="M3422.4 318V350.4"/>
<path transform="matrix(.1,0,0,-.1,0,283)" stroke-width="5.00001" stroke-linecap="butt" stroke-linejoin="round" fill="none" stroke="#000000" d="M3422.4 2472V2440.8"/>
<text xml:space="preserve" transform="matrix(1 0 -0 1 0 283)" font-size="8.00001" font-family="Times"><tspan y="-21.84" x="337.32 341.32 343.32">1.8</tspan></text>
<path transform="matrix(.1,0,0,-.1,0,283)" stroke-width="5.00001" stroke-linecap="butt" stroke-linejoin="round" fill="none" stroke="#000000" d="M3740.4 318V350.4"/>
<path transform="matrix(.1,0,0,-.1,0,283)" stroke-width="5.00001" stroke-linecap="butt" stroke-linejoin="round" fill="none" stroke="#000000" d="M3740.4 2472V2440.8"/>
<text xml:space="preserve" transform="matrix(1 0 -0 1 0 283)" font-size="8.00001" font-family="Times"><tspan y="-21.84" x="372.12">2</tspan></text>
<path transform="matrix(.1,0,0,-.1,0,283)" stroke-width="5.00001" stroke-linecap="butt" stroke-linejoin="round" fill="none" stroke="#000000" d="M571.2 318H602.4"/>
<path transform="matrix(.1,0,0,-.1,0,283)" stroke-width="5.00001" stroke-linecap="butt" stroke-linejoin="round" fill="none" stroke="#000000" d="M3740.4 318H3708"/>
<text xml:space="preserve" transform="matrix(1 0 -0 1 0 283)" font-size="8.00001" font-family="Times"><tspan y="-29.04" x="50.28">1</tspan></text>
<path transform="matrix(.1,0,0,-.1,0,283)" stroke-width="5.00001" stroke-linecap="butt" stroke-linejoin="round" fill="none" stroke="#000000" d="M571.2 534H602.4"/>
<path transform="matrix(.1,0,0,-.1,0,283)" stroke-width="5.00001" stroke-linecap="butt" stroke-linejoin="round" fill="none" stroke="#000000" d="M3740.4 534H3708"/>
<text xml:space="preserve" transform="matrix(1 0 -0 1 0 283)" font-size="8.00001" font-family="Times"><tspan y="-50.64" x="44.28 48.280004 50.280008">1.1</tspan></text>
<path transform="matrix(.1,0,0,-.1,0,283)" stroke-width="5.00001" stroke-linecap="butt" stroke-linejoin="round" fill="none" stroke="#000000" d="M571.2 748.8H602.4"/>
<path transform="matrix(.1,0,0,-.1,0,283)" stroke-width="5.00001" stroke-linecap="butt" stroke-linejoin="round" fill="none" stroke="#000000" d="M3740.4 748.8H3708"/>
<text xml:space="preserve" transform="matrix(1 0 -0 1 0 283)" font-size="8.00001" font-family="Times"><tspan y="-72.12" x="44.28 48.280004 50.280008">1.2</tspan></text>
<path transform="matrix(.1,0,0,-.1,0,283)" stroke-width="5.00001" stroke-linecap="butt" stroke-linejoin="round" fill="none" stroke="#000000" d="M571.2 964.801H602.4"/>
<path transform="matrix(.1,0,0,-.1,0,283)" stroke-width="5.00001" stroke-linecap="butt" stroke-linejoin="round" fill="none" stroke="#000000" d="M3740.4 964.801H3708"/>
<text xml:space="preserve" transform="matrix(1 0 -0 1 0 283)" font-size="8.00001" font-family="Times"><tspan y="-93.7201" x="44.28 48.280004 50.280008">1.3</tspan></text>
<path transform="matrix(.1,0,0,-.1,0,283)" stroke-width="5.00001" stroke-linecap="butt" stroke-linejoin="round" fill="none" stroke="#000000" d="M571.2 1179.6H602.4"/>
<path transform="matrix(.1,0,0,-.1,0,283)" stroke-width="5.00001" stroke-linecap="butt" stroke-linejoin="round" fill="none" stroke="#000000" d="M3740.4 1179.6H3708"/>
<text xml:space="preserve" transform="matrix(1 0 -0 1 0 283)" font-size="8.00001" font-family="Times"><tspan y="-115.2" x="44.28 48.280004 50.280008">1.4</tspan></text>
<path transform="matrix(.1,0,0,-.1,0,283)" stroke-width="5.00001" stroke-linecap="butt" stroke-linejoin="round" fill="none" stroke="#000000" d="M571.2 1395.6H602.4"/>
<path transform="matrix(.1,0,0,-.1,0,283)" stroke-width="5.00001" stroke-linecap="butt" stroke-linejoin="round" fill="none" stroke="#000000" d="M3740.4 1395.6H3708"/>
<text xml:space="preserve" transform="matrix(1 0 -0 1 0 283)" font-size="8.00001" font-family="Times"><tspan y="-136.8" x="44.28 48.280004 50.280008">1.5</tspan></text>
<path transform="matrix(.1,0,0,-.1,0,283)" stroke-width="5.00001" stroke-linecap="butt" stroke-linejoin="round" fill="none" stroke="#000000" d="M571.2 1611.6H602.4"/>
<path transform="matrix(.1,0,0,-.1,0,283)" stroke-width="5.00001" stroke-linecap="butt" stroke-linejoin="round" fill="none" stroke="#000000" d="M3740.4 1611.6H3708"/>
<text xml:space="preserve" transform="matrix(1 0 -0 1 0 283)" font-size="8.00001" font-family="Times"><tspan y="-158.4" x="44.28 48.280004 50.280008">1.6</tspan></text>
<path transform="matrix(.1,0,0,-.1,0,283)" stroke-width="5.00001" stroke-linecap="butt" stroke-linejoin="round" fill="none" stroke="#000000" d="M571.2 1826.4H602.4"/>
<path transform="matrix(.1,0,0,-.1,0,283)" stroke-width="5.00001" stroke-linecap="butt" stroke-linejoin="round" fill="none" stroke="#000000" d="M3740.4 1826.4H3708"/>
<text xml:space="preserve" transform="matrix(1 0 -0 1 0 283)" font-size="8.00001" font-family="Times"><tspan y="-179.88" x="44.28 48.280004 50.280008">1.7</tspan></text>
<path transform="matrix(.1,0,0,-.1,0,283)" stroke-width="5.00001" stroke-linecap="butt" stroke-linejoin="round" fill="none" stroke="#000000" d="M571.2 2041.2H602.4"/>
<path transform="matrix(.1,0,0,-.1,0,283)" stroke-width="5.00001" stroke-linecap="butt" stroke-linejoin="round" fill="none" stroke="#000000" d="M3740.4 2041.2H3708"/>
<text xml:space="preserve" transform="matrix(1 0 -0 1 0 283)" font-size="8.00001" font-family="Times"><tspan y="-201.36" x="44.28 48.280004 50.280008">1.8</tspan></text>
<path transform="matrix(.1,0,0,-.1,0,283)" stroke-width="5.00001" stroke-linecap="butt" stroke-linejoin="round" fill="none" stroke="#000000" d="M571.2 2257.2H602.4"/>
<path transform="matrix(.1,0,0,-.1,0,283)" stroke-width="5.00001" stroke-linecap="butt" stroke-linejoin="round" fill="none" stroke="#000000" d="M3740.4 2257.2H3708"/>
<text xml:space="preserve" transform="matrix(1 0 -0 1 0 283)" font-size="8.00001" font-family="Times"><tspan y="-222.96" x="44.28 48.280004 50.280008">1.9</tspan></text>
<path transform="matrix(.1,0,0,-.1,0,283)" stroke-width="5.00001" stroke-linecap="butt" stroke-linejoin="round" fill="none" stroke="#000000" d="M571.2 2472H602.4"/>
<path transform="matrix(.1,0,0,-.1,0,283)" stroke-width="5.00001" stroke-linecap="butt" stroke-linejoin="round" fill="none" stroke="#000000" d="M3740.4 2472H3708"/>
<text xml:space="preserve" transform="matrix(1 0 -0 1 0 283)" font-size="8.00001" font-family="Times"><tspan y="-244.44" x="50.28">2</tspan></text>
<path transform="matrix(.1,0,0,-.1,0,283)" stroke-width="5.00001" stroke-linecap="butt" stroke-linejoin="round" fill="none" stroke="#000000" d="M571.2 2472H3740.4"/>
<path transform="matrix(.1,0,0,-.1,0,283)" stroke-width="5.00001" stroke-linecap="butt" stroke-linejoin="round" fill="none" stroke="#000000" d="M571.2 318H3740.4"/>
<path transform="matrix(.1,0,0,-.1,0,283)" stroke-width="5.00001" stroke-linecap="butt" stroke-linejoin="round" fill="none" stroke="#000000" d="M3740.4 318V2472"/>
<path transform="matrix(.1,0,0,-.1,0,283)" stroke-width="5.00001" stroke-linecap="butt" stroke-linejoin="round" fill="none" stroke="#000000" d="M571.2 318V2472"/>
</g>
<g clip-path="url(#clip_1)">
<path transform="matrix(.1,0,0,-.1,0,283)" stroke-width="5.00001" stroke-linecap="butt" stroke-linejoin="round" fill="none" stroke="#0000ff" d="M571.2 318 618 319.2 666 321.6 712.8 326.4 760.8 332.4 808.8 340.8 855.599 351.6 903.599 363.6 950.399 378 998.399 394.799 1046.4 413.999 1093.2 434.399 1141.2 457.199 1188 481.199 1236 508.799 1284 537.599 1330.8 569.999 1378.8 603.598 1426.8 639.598 1473.6 677.998 1521.6 718.798 1568.4 760.798 1616.4 806.398 1664.4 854.398 1711.2 903.598 1759.2 956.398 1806 1010.4 1854 1065.6 1902 1124.4 1948.8 1183.2 1996.8 1244.4 2044.8 1306.8 2091.6 1370.4 2139.6 1435.2 2186.4 1498.8 2234.4 1563.6 2282.4 1628.4 2329.2 1690.8 2377.2 1753.2 2424 1814.4 2472 1872 2520 1928.4 2566.8 1981.2 2614.8 2031.6 2662.8 2077.2 2709.6 2120.4 2757.6 2158.8 2804.4 2192.4 2852.4 2222.4 2900.4 2247.59 2947.2 2269.19 2995.2 2285.99 3042 2297.99 3090 2306.39 3138 2309.99H3184.8L3232.8 2307.59 3280.8 2300.39 3327.6 2289.59 3375.6 2276.39 3422.4 2260.79 3470.4 2241.59 3518.4 2220 3565.2 2197.2 3613.2 2170.8 3659.99 2143.2 3707.99 2114.4"/>
</g>
<g clip-path="url(#clip_2)">
<path transform="matrix(.1,0,0,-.1,0,283)" stroke-width="5.00001" stroke-linecap="butt" stroke-linejoin="round" fill="none" stroke="#0000ff" d="M552 318H590.4"/>
<path transform="matrix(.1,0,0,-.1,0,283)" stroke-width="5.00001" stroke-linecap="butt" stroke-linejoin="round" fill="none" stroke="#0000ff" d="M571.2 337.2V298.8"/>
<path transform="matrix(.1,0,0,-.1,0,283)" stroke-width="5.00001" stroke-linecap="butt" stroke-linejoin="round" fill="none" stroke="#0000ff" d="M598.8 319.2H637.2"/>
<path transform="matrix(.1,0,0,-.1,0,283)" stroke-width="5.00001" stroke-linecap="butt" stroke-linejoin="round" fill="none" stroke="#0000ff" d="M618 338.4V300"/>
<path transform="matrix(.1,0,0,-.1,0,283)" stroke-width="5.00001" stroke-linecap="butt" stroke-linejoin="round" fill="none" stroke="#0000ff" d="M646.8 321.6H685.2"/>
<path transform="matrix(.1,0,0,-.1,0,283)" stroke-width="5.00001" stroke-linecap="butt" stroke-linejoin="round" fill="none" stroke="#0000ff" d="M666 340.8V302.4"/>
<path transform="matrix(.1,0,0,-.1,0,283)" stroke-width="5.00001" stroke-linecap="butt" stroke-linejoin="round" fill="none" stroke="#0000ff" d="M693.6 326.4H732"/>
<path transform="matrix(.1,0,0,-.1,0,283)" stroke-width="5.00001" stroke-linecap="butt" stroke-linejoin="round" fill="none" stroke="#0000ff" d="M712.8 345.6V307.2"/>
<path transform="matrix(.1,0,0,-.1,0,283)" stroke-width="5.00001" stroke-linecap="butt" stroke-linejoin="round" fill="none" stroke="#0000ff" d="M741.6 332.4H780"/>
<path transform="matrix(.1,0,0,-.1,0,283)" stroke-width="5.00001" stroke-linecap="butt" stroke-linejoin="round" fill="none" stroke="#0000ff" d="M760.8 351.6V313.2"/>
<path transform="matrix(.1,0,0,-.1,0,283)" stroke-width="5.00001" stroke-linecap="butt" stroke-linejoin="round" fill="none" stroke="#0000ff" d="M789.6 340.8H828"/>
<path transform="matrix(.1,0,0,-.1,0,283)" stroke-width="5.00001" stroke-linecap="butt" stroke-linejoin="round" fill="none" stroke="#0000ff" d="M808.8 360V321.6"/>
<path transform="matrix(.1,0,0,-.1,0,283)" stroke-width="5.00001" stroke-linecap="butt" stroke-linejoin="round" fill="none" stroke="#0000ff" d="M836.4 351.6H874.8"/>
<path transform="matrix(.1,0,0,-.1,0,283)" stroke-width="5.00001" stroke-linecap="butt" stroke-linejoin="round" fill="none" stroke="#0000ff" d="M855.6 370.8V332.4"/>
<path transform="matrix(.1,0,0,-.1,0,283)" stroke-width="5.00001" stroke-linecap="butt" stroke-linejoin="round" fill="none" stroke="#0000ff" d="M884.4 363.6H922.8"/>
<path transform="matrix(.1,0,0,-.1,0,283)" stroke-width="5.00001" stroke-linecap="butt" stroke-linejoin="round" fill="none" stroke="#0000ff" d="M903.6 382.8V344.4"/>
<path transform="matrix(.1,0,0,-.1,0,283)" stroke-width="5.00001" stroke-linecap="butt" stroke-linejoin="round" fill="none" stroke="#0000ff" d="M931.2 378H969.6"/>
<path transform="matrix(.1,0,0,-.1,0,283)" stroke-width="5.00001" stroke-linecap="butt" stroke-linejoin="round" fill="none" stroke="#0000ff" d="M950.4 397.2V358.8"/>
<path transform="matrix(.1,0,0,-.1,0,283)" stroke-width="5.00001" stroke-linecap="butt" stroke-linejoin="round" fill="none" stroke="#0000ff" d="M979.2 394.8H1017.6"/>
<path transform="matrix(.1,0,0,-.1,0,283)" stroke-width="5.00001" stroke-linecap="butt" stroke-linejoin="round" fill="none" stroke="#0000ff" d="M998.4 414V375.6"/>
<path transform="matrix(.1,0,0,-.1,0,283)" stroke-width="5.00001" stroke-linecap="butt" stroke-linejoin="round" fill="none" stroke="#0000ff" d="M1027.2 414H1065.6"/>
<path transform="matrix(.1,0,0,-.1,0,283)" stroke-width="5.00001" stroke-linecap="butt" stroke-linejoin="round" fill="none" stroke="#0000ff" d="M1046.4 433.2V394.8"/>
<path transform="matrix(.1,0,0,-.1,0,283)" stroke-width="5.00001" stroke-linecap="butt" stroke-linejoin="round" fill="none" stroke="#0000ff" d="M1074 434.4H1112.4"/>
<path transform="matrix(.1,0,0,-.1,0,283)" stroke-width="5.00001" stroke-linecap="butt" stroke-linejoin="round" fill="none" stroke="#0000ff" d="M1093.2 453.6V415.2"/>
<path transform="matrix(.1,0,0,-.1,0,283)" stroke-width="5.00001" stroke-linecap="butt" stroke-linejoin="round" fill="none" stroke="#0000ff" d="M1122 457.2H1160.4"/>
<path transform="matrix(.1,0,0,-.1,0,283)" stroke-width="5.00001" stroke-linecap="butt" stroke-linejoin="round" fill="none" stroke="#0000ff" d="M1141.2 476.4V438"/>
<path transform="matrix(.1,0,0,-.1,0,283)" stroke-width="5.00001" stroke-linecap="butt" stroke-linejoin="round" fill="none" stroke="#0000ff" d="M1168.8 481.2H1207.2"/>
<path transform="matrix(.1,0,0,-.1,0,283)" stroke-width="5.00001" stroke-linecap="butt" stroke-linejoin="round" fill="none" stroke="#0000ff" d="M1188 500.4V462"/>
<path transform="matrix(.1,0,0,-.1,0,283)" stroke-width="5.00001" stroke-linecap="butt" stroke-linejoin="round" fill="none" stroke="#0000ff" d="M1216.8 508.8H1255.2"/>
<path transform="matrix(.1,0,0,-.1,0,283)" stroke-width="5.00001" stroke-linecap="butt" stroke-linejoin="round" fill="none" stroke="#0000ff" d="M1236 528V489.6"/>
<path transform="matrix(.1,0,0,-.1,0,283)" stroke-width="5.00001" stroke-linecap="butt" stroke-linejoin="round" fill="none" stroke="#0000ff" d="M1264.8 537.6H1303.2"/>
<path transform="matrix(.1,0,0,-.1,0,283)" stroke-width="5.00001" stroke-linecap="butt" stroke-linejoin="round" fill="none" stroke="#0000ff" d="M1284 556.8V518.4"/>
<path transform="matrix(.1,0,0,-.1,0,283)" stroke-width="5.00001" stroke-linecap="butt" stroke-linejoin="round" fill="none" stroke="#0000ff" d="M1311.6 570H1350"/>
<path transform="matrix(.1,0,0,-.1,0,283)" stroke-width="5.00001" stroke-linecap="butt" stroke-linejoin="round" fill="none" stroke="#0000ff" d="M1330.8 589.2V550.8"/>
<path transform="matrix(.1,0,0,-.1,0,283)" stroke-width="5.00001" stroke-linecap="butt" stroke-linejoin="round" fill="none" stroke="#0000ff" d="M1359.6 603.6H1398"/>
<path transform="matrix(.1,0,0,-.1,0,283)" stroke-width="5.00001" stroke-linecap="butt" stroke-linejoin="round" fill="none" stroke="#0000ff" d="M1378.8 622.8V584.4"/>
<path transform="matrix(.1,0,0,-.1,0,283)" stroke-width="5.00001" stroke-linecap="butt" stroke-linejoin="round" fill="none" stroke="#0000ff" d="M1407.6 639.6H1446"/>
<path transform="matrix(.1,0,0,-.1,0,283)" stroke-width="5.00001" stroke-linecap="butt" stroke-linejoin="round" fill="none" stroke="#0000ff" d="M1426.8 658.8V620.4"/>
<path transform="matrix(.1,0,0,-.1,0,283)" stroke-width="5.00001" stroke-linecap="butt" stroke-linejoin="round" fill="none" stroke="#0000ff" d="M1454.4 678H1492.8"/>
<path transform="matrix(.1,0,0,-.1,0,283)" stroke-width="5.00001" stroke-linecap="butt" stroke-linejoin="round" fill="none" stroke="#0000ff" d="M1473.6 697.2V658.8"/>
<path transform="matrix(.1,0,0,-.1,0,283)" stroke-width="5.00001" stroke-linecap="butt" stroke-linejoin="round" fill="none" stroke="#0000ff" d="M1502.4 718.8H1540.8"/>
<path transform="matrix(.1,0,0,-.1,0,283)" stroke-width="5.00001" stroke-linecap="butt" stroke-linejoin="round" fill="none" stroke="#0000ff" d="M1521.6 738V699.6"/>
<path transform="matrix(.1,0,0,-.1,0,283)" stroke-width="5.00001" stroke-linecap="butt" stroke-linejoin="round" fill="none" stroke="#0000ff" d="M1549.2 760.8H1587.6"/>
<path transform="matrix(.1,0,0,-.1,0,283)" stroke-width="5.00001" stroke-linecap="butt" stroke-linejoin="round" fill="none" stroke="#0000ff" d="M1568.4 780V741.6"/>
<path transform="matrix(.1,0,0,-.1,0,283)" stroke-width="5.00001" stroke-linecap="butt" stroke-linejoin="round" fill="none" stroke="#0000ff" d="M1597.2 806.4H1635.6"/>
<path transform="matrix(.1,0,0,-.1,0,283)" stroke-width="5.00001" stroke-linecap="butt" stroke-linejoin="round" fill="none" stroke="#0000ff" d="M1616.4 825.6V787.2"/>
<path transform="matrix(.1,0,0,-.1,0,283)" stroke-width="5.00001" stroke-linecap="butt" stroke-linejoin="round" fill="none" stroke="#0000ff" d="M1645.2 854.4H1683.6"/>
<path transform="matrix(.1,0,0,-.1,0,283)" stroke-width="5.00001" stroke-linecap="butt" stroke-linejoin="round" fill="none" stroke="#0000ff" d="M1664.4 873.6V835.2"/>
<path transform="matrix(.1,0,0,-.1,0,283)" stroke-width="5.00001" stroke-linecap="butt" stroke-linejoin="round" fill="none" stroke="#0000ff" d="M1692 903.6H1730.4"/>
<path transform="matrix(.1,0,0,-.1,0,283)" stroke-width="5.00001" stroke-linecap="butt" stroke-linejoin="round" fill="none" stroke="#0000ff" d="M1711.2 922.801V884.4"/>
<path transform="matrix(.1,0,0,-.1,0,283)" stroke-width="5.00001" stroke-linecap="butt" stroke-linejoin="round" fill="none" stroke="#0000ff" d="M1740 956.4H1778.4"/>
<path transform="matrix(.1,0,0,-.1,0,283)" stroke-width="5.00001" stroke-linecap="butt" stroke-linejoin="round" fill="none" stroke="#0000ff" d="M1759.2 975.601V937.2"/>
<path transform="matrix(.1,0,0,-.1,0,283)" stroke-width="5.00001" stroke-linecap="butt" stroke-linejoin="round" fill="none" stroke="#0000ff" d="M1786.8 1010.4H1825.2"/>
<path transform="matrix(.1,0,0,-.1,0,283)" stroke-width="5.00001" stroke-linecap="butt" stroke-linejoin="round" fill="none" stroke="#0000ff" d="M1806 1029.6V991.2"/>
<path transform="matrix(.1,0,0,-.1,0,283)" stroke-width="5.00001" stroke-linecap="butt" stroke-linejoin="round" fill="none" stroke="#0000ff" d="M1834.8 1065.6H1873.2"/>
<path transform="matrix(.1,0,0,-.1,0,283)" stroke-width="5.00001" stroke-linecap="butt" stroke-linejoin="round" fill="none" stroke="#0000ff" d="M1854 1084.8V1046.4"/>
<path transform="matrix(.1,0,0,-.1,0,283)" stroke-width="5.00001" stroke-linecap="butt" stroke-linejoin="round" fill="none" stroke="#0000ff" d="M1882.8 1124.4H1921.2"/>
<path transform="matrix(.1,0,0,-.1,0,283)" stroke-width="5.00001" stroke-linecap="butt" stroke-linejoin="round" fill="none" stroke="#0000ff" d="M1902 1143.6V1105.2"/>
<path transform="matrix(.1,0,0,-.1,0,283)" stroke-width="5.00001" stroke-linecap="butt" stroke-linejoin="round" fill="none" stroke="#0000ff" d="M1929.6 1183.2H1968"/>
<path transform="matrix(.1,0,0,-.1,0,283)" stroke-width="5.00001" stroke-linecap="butt" stroke-linejoin="round" fill="none" stroke="#0000ff" d="M1948.8 1202.4V1164"/>
<path transform="matrix(.1,0,0,-.1,0,283)" stroke-width="5.00001" stroke-linecap="butt" stroke-linejoin="round" fill="none" stroke="#0000ff" d="M1977.6 1244.4H2016"/>
<path transform="matrix(.1,0,0,-.1,0,283)" stroke-width="5.00001" stroke-linecap="butt" stroke-linejoin="round" fill="none" stroke="#0000ff" d="M1996.8 1263.6V1225.2"/>
<path transform="matrix(.1,0,0,-.1,0,283)" stroke-width="5.00001" stroke-linecap="butt" stroke-linejoin="round" fill="none" stroke="#0000ff" d="M2025.6 1306.8H2064"/>
<path transform="matrix(.1,0,0,-.1,0,283)" stroke-width="5.00001" stroke-linecap="butt" stroke-linejoin="round" fill="none" stroke="#0000ff" d="M2044.8 1326V1287.6"/>
<path transform="matrix(.1,0,0,-.1,0,283)" stroke-width="5.00001" stroke-linecap="butt" stroke-linejoin="round" fill="none" stroke="#0000ff" d="M2072.4 1370.4H2110.8"/>
<path transform="matrix(.1,0,0,-.1,0,283)" stroke-width="5.00001" stroke-linecap="butt" stroke-linejoin="round" fill="none" stroke="#0000ff" d="M2091.6 1389.6V1351.2"/>
<path transform="matrix(.1,0,0,-.1,0,283)" stroke-width="5.00001" stroke-linecap="butt" stroke-linejoin="round" fill="none" stroke="#0000ff" d="M2120.4 1435.2H2158.8"/>
<path transform="matrix(.1,0,0,-.1,0,283)" stroke-width="5.00001" stroke-linecap="butt" stroke-linejoin="round" fill="none" stroke="#0000ff" d="M2139.6 1454.4V1416"/>
<path transform="matrix(.1,0,0,-.1,0,283)" stroke-width="5.00001" stroke-linecap="butt" stroke-linejoin="round" fill="none" stroke="#0000ff" d="M2167.2 1498.8H2205.6"/>
<path transform="matrix(.1,0,0,-.1,0,283)" stroke-width="5.00001" stroke-linecap="butt" stroke-linejoin="round" fill="none" stroke="#0000ff" d="M2186.4 1518V1479.6"/>
<path transform="matrix(.1,0,0,-.1,0,283)" stroke-width="5.00001" stroke-linecap="butt" stroke-linejoin="round" fill="none" stroke="#0000ff" d="M2215.2 1563.6H2253.6"/>
<path transform="matrix(.1,0,0,-.1,0,283)" stroke-width="5.00001" stroke-linecap="butt" stroke-linejoin="round" fill="none" stroke="#0000ff" d="M2234.4 1582.8V1544.4"/>
<path transform="matrix(.1,0,0,-.1,0,283)" stroke-width="5.00001" stroke-linecap="butt" stroke-linejoin="round" fill="none" stroke="#0000ff" d="M2263.2 1628.4H2301.6"/>
<path transform="matrix(.1,0,0,-.1,0,283)" stroke-width="5.00001" stroke-linecap="butt" stroke-linejoin="round" fill="none" stroke="#0000ff" d="M2282.4 1647.6V1609.2"/>
<path transform="matrix(.1,0,0,-.1,0,283)" stroke-width="5.00001" stroke-linecap="butt" stroke-linejoin="round" fill="none" stroke="#0000ff" d="M2310 1690.8H2348.4"/>
<path transform="matrix(.1,0,0,-.1,0,283)" stroke-width="5.00001" stroke-linecap="butt" stroke-linejoin="round" fill="none" stroke="#0000ff" d="M2329.2 1710V1671.6"/>
<path transform="matrix(.1,0,0,-.1,0,283)" stroke-width="5.00001" stroke-linecap="butt" stroke-linejoin="round" fill="none" stroke="#0000ff" d="M2358 1753.2H2396.4"/>
<path transform="matrix(.1,0,0,-.1,0,283)" stroke-width="5.00001" stroke-linecap="butt" stroke-linejoin="round" fill="none" stroke="#0000ff" d="M2377.2 1772.4V1734"/>
<path transform="matrix(.1,0,0,-.1,0,283)" stroke-width="5.00001" stroke-linecap="butt" stroke-linejoin="round" fill="none" stroke="#0000ff" d="M2404.8 1814.4H2443.2"/>
<path transform="matrix(.1,0,0,-.1,0,283)" stroke-width="5.00001" stroke-linecap="butt" stroke-linejoin="round" fill="none" stroke="#0000ff" d="M2424 1833.6V1795.2"/>
<path transform="matrix(.1,0,0,-.1,0,283)" stroke-width="5.00001" stroke-linecap="butt" stroke-linejoin="round" fill="none" stroke="#0000ff" d="M2452.8 1872H2491.2"/>
<path transform="matrix(.1,0,0,-.1,0,283)" stroke-width="5.00001" stroke-linecap="butt" stroke-linejoin="round" fill="none" stroke="#0000ff" d="M2472 1891.2V1852.8"/>
<path transform="matrix(.1,0,0,-.1,0,283)" stroke-width="5.00001" stroke-linecap="butt" stroke-linejoin="round" fill="none" stroke="#0000ff" d="M2500.8 1928.4H2539.2"/>
<path transform="matrix(.1,0,0,-.1,0,283)" stroke-width="5.00001" stroke-linecap="butt" stroke-linejoin="round" fill="none" stroke="#0000ff" d="M2520 1947.6V1909.2"/>
<path transform="matrix(.1,0,0,-.1,0,283)" stroke-width="5.00001" stroke-linecap="butt" stroke-linejoin="round" fill="none" stroke="#0000ff" d="M2547.6 1981.2H2586"/>
<path transform="matrix(.1,0,0,-.1,0,283)" stroke-width="5.00001" stroke-linecap="butt" stroke-linejoin="round" fill="none" stroke="#0000ff" d="M2566.8 2000.4V1962"/>
<path transform="matrix(.1,0,0,-.1,0,283)" stroke-width="5.00001" stroke-linecap="butt" stroke-linejoin="round" fill="none" stroke="#0000ff" d="M2595.6 2031.6H2634"/>
<path transform="matrix(.1,0,0,-.1,0,283)" stroke-width="5.00001" stroke-linecap="butt" stroke-linejoin="round" fill="none" stroke="#0000ff" d="M2614.8 2050.8V2012.4"/>
<path transform="matrix(.1,0,0,-.1,0,283)" stroke-width="5.00001" stroke-linecap="butt" stroke-linejoin="round" fill="none" stroke="#0000ff" d="M2643.6 2077.2H2682"/>
<path transform="matrix(.1,0,0,-.1,0,283)" stroke-width="5.00001" stroke-linecap="butt" stroke-linejoin="round" fill="none" stroke="#0000ff" d="M2662.8 2096.4V2058"/>
<path transform="matrix(.1,0,0,-.1,0,283)" stroke-width="5.00001" stroke-linecap="butt" stroke-linejoin="round" fill="none" stroke="#0000ff" d="M2690.4 2120.4H2728.8"/>
<path transform="matrix(.1,0,0,-.1,0,283)" stroke-width="5.00001" stroke-linecap="butt" stroke-linejoin="round" fill="none" stroke="#0000ff" d="M2709.6 2139.6V2101.2"/>
<path transform="matrix(.1,0,0,-.1,0,283)" stroke-width="5.00001" stroke-linecap="butt" stroke-linejoin="round" fill="none" stroke="#0000ff" d="M2738.4 2158.8H2776.8"/>
<path transform="matrix(.1,0,0,-.1,0,283)" stroke-width="5.00001" stroke-linecap="butt" stroke-linejoin="round" fill="none" stroke="#0000ff" d="M2757.6 2178V2139.6"/>
<path transform="matrix(.1,0,0,-.1,0,283)" stroke-width="5.00001" stroke-linecap="butt" stroke-linejoin="round" fill="none" stroke="#0000ff" d="M2785.2 2192.4H2823.6"/>
<path transform="matrix(.1,0,0,-.1,0,283)" stroke-width="5.00001" stroke-linecap="butt" stroke-linejoin="round" fill="none" stroke="#0000ff" d="M2804.4 2211.6V2173.2"/>
<path transform="matrix(.1,0,0,-.1,0,283)" stroke-width="5.00001" stroke-linecap="butt" stroke-linejoin="round" fill="none" stroke="#0000ff" d="M2833.2 2222.4H2871.6"/>
<path transform="matrix(.1,0,0,-.1,0,283)" stroke-width="5.00001" stroke-linecap="butt" stroke-linejoin="round" fill="none" stroke="#0000ff" d="M2852.4 2241.6V2203.2"/>
<path transform="matrix(.1,0,0,-.1,0,283)" stroke-width="5.00001" stroke-linecap="butt" stroke-linejoin="round" fill="none" stroke="#0000ff" d="M2881.2 2247.6H2919.6"/>
<path transform="matrix(.1,0,0,-.1,0,283)" stroke-width="5.00001" stroke-linecap="butt" stroke-linejoin="round" fill="none" stroke="#0000ff" d="M2900.4 2266.8V2228.4"/>
<path transform="matrix(.1,0,0,-.1,0,283)" stroke-width="5.00001" stroke-linecap="butt" stroke-linejoin="round" fill="none" stroke="#0000ff" d="M2928 2269.2H2966.4"/>
<path transform="matrix(.1,0,0,-.1,0,283)" stroke-width="5.00001" stroke-linecap="butt" stroke-linejoin="round" fill="none" stroke="#0000ff" d="M2947.2 2288.4V2250"/>
<path transform="matrix(.1,0,0,-.1,0,283)" stroke-width="5.00001" stroke-linecap="butt" stroke-linejoin="round" fill="none" stroke="#0000ff" d="M2976 2286H3014.4"/>
<path transform="matrix(.1,0,0,-.1,0,283)" stroke-width="5.00001" stroke-linecap="butt" stroke-linejoin="round" fill="none" stroke="#0000ff" d="M2995.2 2305.2V2266.8"/>
<path transform="matrix(.1,0,0,-.1,0,283)" stroke-width="5.00001" stroke-linecap="butt" stroke-linejoin="round" fill="none" stroke="#0000ff" d="M3022.8 2298H3061.2"/>
<path transform="matrix(.1,0,0,-.1,0,283)" stroke-width="5.00001" stroke-linecap="butt" stroke-linejoin="round" fill="none" stroke="#0000ff" d="M3042 2317.2V2278.8"/>
<path transform="matrix(.1,0,0,-.1,0,283)" stroke-width="5.00001" stroke-linecap="butt" stroke-linejoin="round" fill="none" stroke="#0000ff" d="M3070.8 2306.4H3109.2"/>
<path transform="matrix(.1,0,0,-.1,0,283)" stroke-width="5.00001" stroke-linecap="butt" stroke-linejoin="round" fill="none" stroke="#0000ff" d="M3090 2325.6V2287.2"/>
<path transform="matrix(.1,0,0,-.1,0,283)" stroke-width="5.00001" stroke-linecap="butt" stroke-linejoin="round" fill="none" stroke="#0000ff" d="M3118.8 2310H3157.2"/>
<path transform="matrix(.1,0,0,-.1,0,283)" stroke-width="5.00001" stroke-linecap="butt" stroke-linejoin="round" fill="none" stroke="#0000ff" d="M3138 2329.2V2290.8"/>
<path transform="matrix(.1,0,0,-.1,0,283)" stroke-width="5.00001" stroke-linecap="butt" stroke-linejoin="round" fill="none" stroke="#0000ff" d="M3165.6 2310H3204"/>
<path transform="matrix(.1,0,0,-.1,0,283)" stroke-width="5.00001" stroke-linecap="butt" stroke-linejoin="round" fill="none" stroke="#0000ff" d="M3184.8 2329.2V2290.8"/>
<path transform="matrix(.1,0,0,-.1,0,283)" stroke-width="5.00001" stroke-linecap="butt" stroke-linejoin="round" fill="none" stroke="#0000ff" d="M3213.6 2307.6H3252"/>
<path transform="matrix(.1,0,0,-.1,0,283)" stroke-width="5.00001" stroke-linecap="butt" stroke-linejoin="round" fill="none" stroke="#0000ff" d="M3232.8 2326.8V2288.4"/>
<path transform="matrix(.1,0,0,-.1,0,283)" stroke-width="5.00001" stroke-linecap="butt" stroke-linejoin="round" fill="none" stroke="#0000ff" d="M3261.6 2300.4H3300"/>
<path transform="matrix(.1,0,0,-.1,0,283)" stroke-width="5.00001" stroke-linecap="butt" stroke-linejoin="round" fill="none" stroke="#0000ff" d="M3280.8 2319.6V2281.2"/>
<path transform="matrix(.1,0,0,-.1,0,283)" stroke-width="5.00001" stroke-linecap="butt" stroke-linejoin="round" fill="none" stroke="#0000ff" d="M3308.4 2289.6H3346.8"/>
<path transform="matrix(.1,0,0,-.1,0,283)" stroke-width="5.00001" stroke-linecap="butt" stroke-linejoin="round" fill="none" stroke="#0000ff" d="M3327.6 2308.8V2270.4"/>
<path transform="matrix(.1,0,0,-.1,0,283)" stroke-width="5.00001" stroke-linecap="butt" stroke-linejoin="round" fill="none" stroke="#0000ff" d="M3356.4 2276.4H3394.8"/>
<path transform="matrix(.1,0,0,-.1,0,283)" stroke-width="5.00001" stroke-linecap="butt" stroke-linejoin="round" fill="none" stroke="#0000ff" d="M3375.6 2295.6V2257.2"/>
<path transform="matrix(.1,0,0,-.1,0,283)" stroke-width="5.00001" stroke-linecap="butt" stroke-linejoin="round" fill="none" stroke="#0000ff" d="M3403.2 2260.8H3441.6"/>
<path transform="matrix(.1,0,0,-.1,0,283)" stroke-width="5.00001" stroke-linecap="butt" stroke-linejoin="round" fill="none" stroke="#0000ff" d="M3422.4 2280V2241.6"/>
<path transform="matrix(.1,0,0,-.1,0,283)" stroke-width="5.00001" stroke-linecap="butt" stroke-linejoin="round" fill="none" stroke="#0000ff" d="M3451.2 2241.6H3489.6"/>
<path transform="matrix(.1,0,0,-.1,0,283)" stroke-width="5.00001" stroke-linecap="butt" stroke-linejoin="round" fill="none" stroke="#0000ff" d="M3470.4 2260.8V2222.4"/>
<path transform="matrix(.1,0,0,-.1,0,283)" stroke-width="5.00001" stroke-linecap="butt" stroke-linejoin="round" fill="none" stroke="#0000ff" d="M3499.2 2220H3537.6"/>
<path transform="matrix(.1,0,0,-.1,0,283)" stroke-width="5.00001" stroke-linecap="butt" stroke-linejoin="round" fill="none" stroke="#0000ff" d="M3518.4 2239.2V2200.8"/>
<path transform="matrix(.1,0,0,-.1,0,283)" stroke-width="5.00001" stroke-linecap="butt" stroke-linejoin="round" fill="none" stroke="#0000ff" d="M3546 2197.2H3584.4"/>
<path transform="matrix(.1,0,0,-.1,0,283)" stroke-width="5.00001" stroke-linecap="butt" stroke-linejoin="round" fill="none" stroke="#0000ff" d="M3565.2 2216.4V2178"/>
<path transform="matrix(.1,0,0,-.1,0,283)" stroke-width="5.00001" stroke-linecap="butt" stroke-linejoin="round" fill="none" stroke="#0000ff" d="M3594 2170.8H3632.4"/>
<path transform="matrix(.1,0,0,-.1,0,283)" stroke-width="5.00001" stroke-linecap="butt" stroke-linejoin="round" fill="none" stroke="#0000ff" d="M3613.2 2190V2151.6"/>
<path transform="matrix(.1,0,0,-.1,0,283)" stroke-width="5.00001" stroke-linecap="butt" stroke-linejoin="round" fill="none" stroke="#0000ff" d="M3640.8 2143.2H3679.2"/>
<path transform="matrix(.1,0,0,-.1,0,283)" stroke-width="5.00001" stroke-linecap="butt" stroke-linejoin="round" fill="none" stroke="#0000ff" d="M3660 2162.4V2124"/>
<path transform="matrix(.1,0,0,-.1,0,283)" stroke-width="5.00001" stroke-linecap="butt" stroke-linejoin="round" fill="none" stroke="#0000ff" d="M3688.8 2114.4H3727.2"/>
<path transform="matrix(.1,0,0,-.1,0,283)" stroke-width="5.00001" stroke-linecap="butt" stroke-linejoin="round" fill="none" stroke="#0000ff" d="M3708 2133.6V2095.2"/>
<text xml:space="preserve" transform="matrix(1 0 0 -1 0 283)" font-size=".1" font-family="A"><tspan y="262.5" x="104 104 112.2 112.2 119 119 122 122 127.2 127.2 132.4 134.6 134.6 143 143 152.7 152.7 157.9 157.9 162.29999 162.29999 169.09999 169.09999 175.4 175.4 186.09999 186.09999 190.49999 190.49999 196.49999 196.49999 199.49999 199.49999 206.29999 206.29999 210.69998 210.69998 213.69998 213.69998 219.69998 219.69998 230.39998 230.39998 234.79998 234.79998 244.39998 244.39998 250.99999 250.99999 255.39998 255.39998 259.39997 259.39997 265.79997 265.79997 273.59996 273.59996 285.89994 285.89994 290.39994 290.39994 293.39994 293.39994 301.49995 301.49995 305.39994 305.39994 311.39994 311.39994 318.19993">&#xfffd;&#xfffd;&#xfffd;&#xfffd;&#xfffd;&#xfffd;&#xfffd;&#xfffd;&#xfffd;&#xfffd;&#xfffd;&#x000a;&#x000c;&#x000b;&#x000d;&#xfffd;&#xfffd;&#x000e;&#x0010;&#x000f;&#xfffd;&#x0011;&#x0013;&#x0012;&#x0014;&#x000a;&#x0010;&#x0011;&#x0015;&#xfffd;&#xfffd;&#xfffd;&#xfffd;&#x000e;&#x0010;&#x0016;&#xfffd;&#x0011;&#x0015;&#x0017;&#x0014;&#x000e;&#x0010;&#x0011;&#x0019;&#x0018;&#x001b;&#x001a;&#x0010;&#x001c;&#x001e;&#x001d; &#x001f;"!#&#x000a;$&#x0016;&#xfffd;&#x0017;%&#x001c;&#x0026;&#x001d;&#x0015;&#x0018;&#xfffd;&#x001f;</tspan><tspan y="20.09999" x="212.30002">&#x001d;</tspan><tspan y="149.9" x="36.000017">&#x0018;</tspan></text>
</g>
</svg>
